<?xml version="1.0" standalone="no"?>
<!DOCTYPE svg PUBLIC "-//W3C//DTD SVG 1.1//EN" "http://www.w3.org/Graphics/SVG/1.1/DTD/svg11.dtd" >
<svg xmlns="http://www.w3.org/2000/svg">
<metadata>
This is a custom SVG webfont generated by Font Squirrel.
Copyright   : Copyright 1992 by Elfring Soft Fonts All rights reserved
</metadata>
<defs>
<font id="EarthNormal" horiz-adv-x="1614" >
<font-face units-per-em="2048" ascent="1638" descent="-410" />
<missing-glyph horiz-adv-x="576" />
<glyph unicode=" "  horiz-adv-x="576" />
<glyph unicode="&#x09;" horiz-adv-x="576" />
<glyph unicode="&#xa0;" horiz-adv-x="576" />
<glyph unicode="!" horiz-adv-x="470" d="M101 0v255h243v-255h-243zM101 413v663h243v-663h-243z" />
<glyph unicode="&#x22;" horiz-adv-x="542" d="M78 662v414h154v-414h-154zM321 662v414h152v-414h-152z" />
<glyph unicode="$" horiz-adv-x="1531" d="M56 -2v264h542v159h-318q-54 0 -96.5 27.5t-65.5 63.5t-23 60v348q0 45 50 99.5t129 54.5h324v184h308v-184h485v-255h-485v-152h347q101 0 149 -52t48 -136v-315q0 -67 -39.5 -116.5t-110.5 -49.5h-394v-182h-308v182h-542zM406 745q0 -24 23.5 -51t66.5 -27l103 1 l-1 151h-129q-29 0 -46 -24t-17 -50zM906 262h148q26 0 55 19.5t29 58.5q0 21 -12 39.5t-37 30t-54 11.5h-129v-159z" />
<glyph unicode="&#x26;" horiz-adv-x="1578" d="M58 180v248q0 68 33 106.5t83.5 53t109.5 14.5q-61 39 -90 75.5t-30 80.5v179q0 53 27.5 90t69.5 55.5t82 18.5h901v-264h-730q-11 0 -25 -13.5t-14 -27.5q0 -38 21 -48q56 -30 172 -90.5t234.5 -123t146.5 -76.5v135h283l2 -295l204 -125l-111 -198l-200 111 q-11 -6 -49.5 -30.5t-75.5 -41t-72 -16.5h-791q-91 0 -135 53t-46 129zM362 350q0 -36 12.5 -55.5t47.5 -19.5h444l-463 254q-41 -9 -41 -75q1 -11 1.5 -20.5t0.5 -24.5q0 -21 -0.5 -33t-1.5 -26z" />
<glyph unicode="'" horiz-adv-x="477" d="M91 834v256h249v-250l-84 -166h-142l80 163q0 -1 -12 -3t-33 -2q-32 0 -58 2z" />
<glyph unicode="(" horiz-adv-x="795" d="M145 991q0 108 57.5 190t159.5 125.5t226 43.5q22 0 42 -0.5t43 -1.5q32 0 44 2v-252q-91 0 -175 -26t-84 -118v-803q0 -99 64 -139t148 -40q30 0 52 5l-4 -247h-231q-69 0 -131.5 30.5t-110.5 79.5t-73.5 102t-25.5 98z" />
<glyph unicode=")" horiz-adv-x="795" d="M66 -23q20 -5 54 -5q82 0 146 40t64 139v803q0 64 -48.5 96.5t-103 40t-106.5 7.5v252q13 -2 44 -2q24 1 43 1.5t41 0.5q94 0 174 -24t140.5 -70.5t95 -115t34.5 -149.5l-2 -951q0 -45 -25.5 -98.5t-73 -101.5t-110.5 -79t-131 -31h-233z" />
<glyph unicode="," horiz-adv-x="467" d="M68 0v267h256v-269l-86 -156h-124q0 6 25.5 63.5t42.5 94.5h-114z" />
<glyph unicode="." horiz-adv-x="467" d="M68 -2v264h262v-264h-262z" />
<glyph unicode="/" horiz-adv-x="990" d="M40 0l551 1074h355l-554 -1072z" />
<glyph unicode="0" horiz-adv-x="1404" d="M68 250v572q0 35 28.5 79.5t75.5 83.5t103 64t106 25h591q102 0 187 -45.5t133 -115t48 -137.5v-474q0 -54 -38 -127t-103.5 -125t-146.5 -52h-676q-61 0 -133.5 40.5t-123.5 100.5t-51 111zM359 431q3 -163 137 -163h390q48 0 80 24t47.5 56.5t15.5 61.5v263 q0 76 -55.5 106t-122.5 30h-312q-75 -3 -126 -50t-54 -107v-221z" />
<glyph unicode="1" horiz-adv-x="643" d="M44 662v326l114 86h395v-1074h-303v793l-4 3q-5 4 -8 4l-176 -138h-18z" />
<glyph unicode="2" horiz-adv-x="1482" d="M68 0v262h1356v-262h-1356zM68 418v96q0 33 21.5 70.5t55.5 62t72 24.5h786q31 0 53 28.5t22 49.5q0 27 -30.5 48.5t-61.5 21.5h-891v257h1115q34 0 75 -23.5t70 -60t29 -72.5v-342q0 -46 -43 -103t-95 -57h-1178z" />
<glyph unicode="3" horiz-adv-x="1440" d="M56 0v270h930q26 0 44.5 17t18.5 56q0 37 -22 55t-58 18h-339l287 251h275q42 0 75.5 -18.5t54.5 -44.5t32.5 -52t11.5 -45v-329q0 -75 -51 -126.5t-88 -51.5h-1171zM91 824v252h1281q-17 -22 -144 -137t-144 -115h-993z" />
<glyph unicode="4" horiz-adv-x="1417" d="M68 413v409h308v-155h518v407h310v-413h144v-248h-1280zM894 -2v264h310v-264h-310z" />
<glyph unicode="5" horiz-adv-x="1486" d="M56 -2v254h970q28 0 54 23t26 57t-29.5 57t-50.5 23h-799q-49 0 -82 29t-51 62t-22 47v114h1154q30 0 73 -15t80 -60t37 -125v-276q0 -48 -19 -92t-48 -71t-61 -27h-1232zM78 815v259h1322v-259h-1322z" />
<glyph unicode="6" horiz-adv-x="1407" d="M68 292v360h1107q53 0 91 -31t57 -72t19 -68v-312q0 -44 -24.5 -83.5t-61 -63.5t-69.5 -24h-781q-64 0 -126 28t-110 73.5t-75 97t-27 95.5zM72 814q0 49 31.5 96.5t82 84t113.5 59t123 22.5l891 -4v-258h-1241zM382 334q0 -28 26.5 -51t55.5 -23l484 1q32 0 53.5 17.5 t21.5 54.5q0 19 -11.5 36t-29.5 27.5t-36 10.5h-488q-21 0 -48.5 -18.5t-27.5 -54.5z" />
<glyph unicode="7" horiz-adv-x="1385" d="M44 822v254h1294v-254h-1294zM211 -2l592 660h374l-575 -660h-391z" />
<glyph unicode="8" horiz-adv-x="1423" d="M58 204v205q1 51 12.5 80.5t31.5 45t48 26.5t56 23q-40 30 -61.5 47t-33 41.5t-11.5 76.5v161q6 93 53 129.5t108 36.5h851q86 0 137 -39t51 -102v-189q0 -89 -96 -168q29 -12 59 -23t50.5 -26t32.5 -40.5t12 -67.5q0 -33 -1.5 -103.5t-2.5 -110.5q-1 -104 -30.5 -156.5 t-113.5 -52.5h-966q-117 0 -151.5 71t-34.5 135zM359 338q0 -33 25.5 -54.5t61.5 -21.5h505q35 0 58 23t23 53q0 35 -28 56t-66 21h-486q-43 0 -68 -26t-25 -51zM410 748q0 -30 25 -54t56 -24h409q44 0 59.5 19t15.5 56t-14.5 53.5t-54.5 16.5h-425q-27 0 -49 -18.5 t-22 -48.5z" />
<glyph unicode="9" horiz-adv-x="1396" d="M54 638v259q0 73 47.5 125t98.5 52h786q72 0 135.5 -31t109 -79t70 -101.5t24.5 -94.5v-355h-1114q-95 0 -126 72t-31 153zM72 -2v264h1249q0 -50 -25.5 -98t-69.5 -86t-94 -59t-100 -21h-960zM372 742q0 -26 22 -50.5t52 -24.5h500q22 0 43 22t21 51q0 26 -25.5 49 t-55.5 23h-483q-22 0 -48 -24t-26 -46z" />
<glyph unicode=":" horiz-adv-x="467" d="M68 -2v264h262v-264h-262zM68 418v262h262v-262h-262z" />
<glyph unicode=";" horiz-adv-x="467" d="M68 0v267h256v-269l-86 -156h-124q0 6 25.5 63.5t42.5 94.5h-114zM68 418v267h256v-267h-256z" />
<glyph unicode="?" horiz-adv-x="1152" d="M56 818v258h809q59 0 98 -29t57 -73t18 -89v-283q0 -54 -16 -99t-46 -72t-70 -27h-580v252h332q24 0 46.5 21t22.5 59q0 33 -28.5 57.5t-68.5 24.5h-574zM326 0v252h258v-252h-258z" />
<glyph unicode="A" d="M62 472q0 90 48 142.5t113 52.5h826q57 0 100 -29.5t61 -58.5v98q0 31 -18 63t-52 53t-79 21h-989v260h1115q71 0 134 -34.5t111 -89.5t74.5 -114.5t26.5 -105.5v-732h-323v76q-12 -28 -50.5 -52t-69.5 -24h-873q-35 0 -71 18.5t-58.5 51.5t-23.5 74q0 80 -1 201.5 t-1 128.5zM376 334q0 -32 21.5 -52.5t43.5 -20.5h637q22 0 46.5 22t24.5 50q0 20 -15 37t-37 27t-36 10h-609q-42 0 -59 -28.5t-17 -44.5z" />
<glyph unicode="B" horiz-adv-x="1517" d="M68 0v662h942q20 0 52.5 21.5t32.5 59.5q0 27 -26 56t-71 29h-930v248h1131q51 0 96.5 -32t73 -77.5t27.5 -82.5v-153q0 -42 -11 -68t-30.5 -45t-64.5 -54q71 -49 113 -89.5t42 -88.5v-214q0 -30 -16 -70t-52.5 -71t-92.5 -31h-1216zM376 260h685q29 0 46 20t17 48 q0 75 -75 75h-673v-143z" />
<glyph unicode="C" horiz-adv-x="1348" d="M62 318v456q0 74 50 143.5t120 113t117 43.5h917v-252h-718q-40 0 -80 -25t-66 -61.5t-26 -68.5v-252q0 -36 20 -70.5t56.5 -57.5t80.5 -23h739v-266h-831q-129 0 -215 53.5t-125 127.5t-39 139z" />
<glyph unicode="D" horiz-adv-x="1528" d="M78 822v252h1045q92 0 167.5 -52.5t117.5 -126.5t42 -131v-478q0 -75 -54 -141t-128 -106.5t-126 -40.5h-1057v663h309v-399h568q90 0 135 51t45 128v218q-2 48 -23.5 84.5t-64 57.5t-103.5 21h-873z" />
<glyph unicode="E" horiz-adv-x="1575" d="M56 315v467q0 54 29.5 106.5t78 95.5t102.5 67.5t99 24.5h891q38 0 85.5 -24t86 -59t62 -75t23.5 -75v-259q0 -72 -38.5 -121.5t-127.5 -49.5l-982 2v-53q0 -40 31.5 -75t67.5 -35h1032v-254h-1090q-109 0 -188.5 57.5t-120.5 134t-41 125.5zM365 661h844l1 81 q0 34 -28 55t-64 21l-645 1q-41 0 -74.5 -36t-33.5 -78v-44z" />
<glyph unicode="F" horiz-adv-x="1362" d="M78 -2v789q0 63 47 130.5t121 112t148 44.5h890v-252h-799q-39 0 -71.5 -36.5t-32.5 -68.5l1 -55h884v-250h-884v-414h-304z" />
<glyph unicode="G" horiz-adv-x="1459" d="M56 302v485q0 59 45.5 127t119.5 114t151 46h986v-252h-810q-46 0 -86 -22t-65 -56.5t-25 -70.5v-238q0 -55 25 -97t67.5 -64t96.5 -22h413q42 0 72.5 22t30.5 60q0 39 -25.5 58.5t-54.5 19.5h-304v252h384q5 -1 59 -12.5t112 -44t100.5 -99t42.5 -170.5 q0 -70 -21.5 -132t-61.5 -108t-97 -73t-122 -27h-695q-60 0 -141 43t-139 113.5t-58 147.5z" />
<glyph unicode="H" horiz-adv-x="1556" d="M78 -2v1074h304v-1074h-304zM578 404v261h572v411h311v-1078h-311v406h-572z" />
<glyph unicode="I" horiz-adv-x="501" d="M101 0v1074h309v-1074h-309z" />
<glyph unicode="J" horiz-adv-x="1075" d="M44 0v258h466q52 0 92.5 25.5t62 63t21.5 72.5v655h311v-793q0 -52 -43.5 -119.5t-115.5 -114.5t-152 -47h-642z" />
<glyph unicode="K" horiz-adv-x="1562" d="M68 0v1074h304v-1074h-304zM561 422v248l488 404h412l-615 -524l678 -550h-452z" />
<glyph unicode="L" horiz-adv-x="1326" d="M78 280v794h298v-646q0 -54 30 -94.5t70 -61t66 -20.5h734v-254h-900q-72 0 -141 51.5t-113 120.5t-44 110z" />
<glyph unicode="M" horiz-adv-x="1984" d="M68 0v828q0 60 29 110.5t73 85t94 53.5t86 19q105 0 176 -53.5t148 -183.5l308 -555l316 556q62 116 134.5 176t179.5 60q64 0 119 -24.5t94.5 -66.5t60 -92.5t20.5 -97.5v-815h-310v667q0 16 -14 28.5t-26 12.5q-33 0 -46 -29l-373 -679h-294l-384 682q-3 12 -13 22 t-20.5 15t-16.5 5q-15 0 -26 -15t-11 -32v-677h-304z" />
<glyph unicode="N" horiz-adv-x="1682" d="M78 0v856q0 22 14.5 61t48.5 80.5t89.5 70t134.5 28.5q100 0 156.5 -33t91.5 -72l525 -619q25 -34 42.5 -43t40.5 -9q27 0 33.5 16t6.5 45v693h309v-841q0 -46 -29 -109.5t-94 -111t-165 -47.5q-102 0 -151.5 28t-106.5 104l-522 630q-24 33 -39 42t-36 9 q-15 0 -30 -10.5t-15 -30.5v-737h-304z" />
<glyph unicode="O" d="M68 337v403q0 66 28.5 126.5t76 107t103.5 73.5t106 27h814q55 0 135.5 -36t142.5 -117t62 -209v-386q0 -90 -50 -165t-121.5 -119t-126.5 -44h-826q-102 0 -181 53.5t-121 133t-42 152.5zM384 454q2 -75 41 -127t117 -52h530q65 0 110 35t45 117v221q0 70 -47.5 118.5 t-149.5 48.5h-476q-28 0 -68.5 -21t-71 -55.5t-30.5 -73.5v-211z" />
<glyph unicode="P" horiz-adv-x="1506" d="M68 -2v663h1004q21 0 41 23t20 52q0 28 -16.5 46.5t-45.5 27.5t-57 9h-946v255h1159q121 0 169.5 -58.5t48.5 -147.5v-252q0 -90 -43.5 -152.5t-145.5 -62.5h-880v-403h-308z" />
<glyph unicode="Q" horiz-adv-x="1593" d="M68 310v461q0 40 23.5 92.5t63.5 101t93.5 80t110.5 31.5h884q37 0 89 -25.5t98 -68t76 -98t30 -113.5v-455q0 -51 -20 -104.5t-63 -103t-110 -79t-156 -29.5h-253v-149h-264v149h-206q-76 0 -148 27t-128.5 73t-88 101.5t-31.5 108.5zM376 467q0 -70 36.5 -125t88.5 -55 h163v149h274v-153l140 1q37 0 72 20.5t56 54t21 72.5v248q0 34 -24.5 66.5t-60.5 52.5t-65 20h-539q-32 0 -69 -21t-63.5 -55t-27.5 -74z" />
<glyph unicode="R" horiz-adv-x="1506" d="M78 -2v669h973q29 0 57.5 21.5t28.5 59.5q0 28 -14 44t-36.5 24t-46.5 8h-962v250h1174q82 0 141.5 -59t59.5 -143v-268q0 -72 -29 -111t-69 -54t-92.5 -21t-60.5 -9l699 -761h-402l-708 761h-401v-411h-312z" />
<glyph unicode="S" horiz-adv-x="1531" d="M56 -2v264h998q26 0 55 19.5t29 58.5q0 21 -12 39.5t-37 30t-54 11.5h-755q-54 0 -96.5 27.5t-65.5 63.5t-23 60v348q0 45 50 99.5t129 54.5h1117v-255h-922q-29 0 -46 -24t-17 -50q0 -24 23.5 -51t66.5 -27h757q101 0 149 -52t48 -136v-315q0 -67 -39.5 -116.5 t-110.5 -49.5h-1244z" />
<glyph unicode="T" horiz-adv-x="1878" d="M32 818v258h862v-1076h-304v818h-558zM977 -2v1076h861v-259h-557v-817h-304z" />
<glyph unicode="U" horiz-adv-x="1500" d="M68 344v730h304v-650q0 -44 26 -81.5t61 -59t61 -21.5h466q30 0 62.5 25.5t54 60t21.5 59.5v667h317v-782q0 -55 -42.5 -124.5t-107 -119.5t-127.5 -50h-758q-92 0 -170 53.5t-123 135t-45 157.5z" />
<glyph unicode="V" horiz-adv-x="1648" d="M14 1074h350l402 -725q18 -32 26.5 -42.5t27.5 -10.5q22 0 31 11.5t26 41.5l405 725h355l-508 -922q-26 -46 -60.5 -85t-97 -68.5t-149.5 -29.5q-83 0 -147.5 31t-103.5 72.5t-53 73.5z" />
<glyph unicode="W" horiz-adv-x="2198" d="M9 1077h344l260 -690q12 -28 19.5 -35.5t19.5 -7.5q22 0 32 10t20 44l196 679h384l180 -679q9 -36 21.5 -47t28.5 -11q38 0 56 58l249 679h351l-330 -887q-30 -78 -64.5 -125t-95 -72t-153.5 -25q-243 0 -309 228l-134 462l-139 -454q-23 -71 -62.5 -123.5t-99 -82.5 t-139.5 -30q-55 0 -115.5 28t-112.5 83t-79 128z" />
<glyph unicode="X" horiz-adv-x="1666" d="M9 -2l533 535l-470 539h378l378 -405l387 405h401l-489 -543l529 -529h-430l-390 401l-389 -403h-438z" />
<glyph unicode="Y" horiz-adv-x="1476" d="M54 710l2 366h297v-258q0 -29 20 -65.5t52.5 -63.5t70.5 -27h461q46 0 82.5 25t56 60t19.5 62l2 267h297v-402q0 -70 -39.5 -131t-103.5 -97t-131 -36h-758q-80 0 -143 35.5t-103.5 86t-61 100.5t-20.5 78zM473 -2v258h528v-258h-528z" />
<glyph unicode="Z" horiz-adv-x="1445" d="M44 -2v244l586 412h519l-582 -390h821v-266h-1344zM78 815v259h1275v-259h-1275z" />
<glyph unicode="[" horiz-adv-x="795" d="M145 991q0 108 57.5 190t159.5 125.5t226 43.5q22 0 42 -0.5t43 -1.5q32 0 44 2v-252q-91 0 -175 -26t-84 -118v-803q0 -99 64 -139t148 -40q30 0 52 5l-4 -247h-231q-69 0 -131.5 30.5t-110.5 79.5t-73.5 102t-25.5 98z" />
<glyph unicode="\" horiz-adv-x="990" d="M38 1074h355l550 -1074l-350 2z" />
<glyph unicode="]" horiz-adv-x="795" d="M66 -23q20 -5 54 -5q82 0 146 40t64 139v803q0 64 -48.5 96.5t-103 40t-106.5 7.5v252q13 -2 44 -2q24 1 43 1.5t41 0.5q94 0 174 -24t140.5 -70.5t95 -115t34.5 -149.5l-2 -951q0 -45 -25.5 -98.5t-73 -101.5t-110.5 -79t-131 -31h-233z" />
<glyph unicode="_" horiz-adv-x="1017" d="M2 -157h1015v-196h-1015v196z" />
<glyph unicode="`" horiz-adv-x="708" d="M75 1074h355l214 -209h-352z" />
<glyph unicode="a" d="M62 472q0 90 48 142.5t113 52.5h826q57 0 100 -29.5t61 -58.5v98q0 31 -18 63t-52 53t-79 21h-989v260h1115q71 0 134 -34.5t111 -89.5t74.5 -114.5t26.5 -105.5v-732h-323v76q-12 -28 -50.5 -52t-69.5 -24h-873q-35 0 -71 18.5t-58.5 51.5t-23.5 74q0 80 -1 201.5 t-1 128.5zM376 334q0 -32 21.5 -52.5t43.5 -20.5h637q22 0 46.5 22t24.5 50q0 20 -15 37t-37 27t-36 10h-609q-42 0 -59 -28.5t-17 -44.5z" />
<glyph unicode="b" horiz-adv-x="1517" d="M68 0v662h942q20 0 52.5 21.5t32.5 59.5q0 27 -26 56t-71 29h-930v248h1131q51 0 96.5 -32t73 -77.5t27.5 -82.5v-153q0 -42 -11 -68t-30.5 -45t-64.5 -54q71 -49 113 -89.5t42 -88.5v-214q0 -30 -16 -70t-52.5 -71t-92.5 -31h-1216zM376 260h685q29 0 46 20t17 48 q0 75 -75 75h-673v-143z" />
<glyph unicode="c" horiz-adv-x="1348" d="M62 318v456q0 74 50 143.5t120 113t117 43.5h917v-252h-718q-40 0 -80 -25t-66 -61.5t-26 -68.5v-252q0 -36 20 -70.5t56.5 -57.5t80.5 -23h739v-266h-831q-129 0 -215 53.5t-125 127.5t-39 139z" />
<glyph unicode="d" horiz-adv-x="1528" d="M78 822v252h1045q92 0 167.5 -52.5t117.5 -126.5t42 -131v-478q0 -75 -54 -141t-128 -106.5t-126 -40.5h-1057v663h309v-399h568q90 0 135 51t45 128v218q-2 48 -23.5 84.5t-64 57.5t-103.5 21h-873z" />
<glyph unicode="e" horiz-adv-x="1368" d="M78 326v450q0 69 55 139t131 114.5t130 44.5h880v-246h-783q-29 0 -55 -14.5t-43 -38.5t-17 -51v-63h892v-243h-886v-86q0 -32 37.5 -56t71.5 -24h806v-254h-885q-92 0 -169 53t-121 129t-44 146z" />
<glyph unicode="f" horiz-adv-x="1362" d="M78 -2v789q0 63 47 130.5t121 112t148 44.5h890v-252h-799q-39 0 -71.5 -36.5t-32.5 -68.5l1 -55h884v-250h-884v-414h-304z" />
<glyph unicode="g" horiz-adv-x="1459" d="M56 302v485q0 59 45.5 127t119.5 114t151 46h986v-252h-810q-46 0 -86 -22t-65 -56.5t-25 -70.5v-238q0 -55 25 -97t67.5 -64t96.5 -22h413q42 0 72.5 22t30.5 60q0 39 -25.5 58.5t-54.5 19.5h-304v252h384q5 -1 59 -12.5t112 -44t100.5 -99t42.5 -170.5 q0 -70 -21.5 -132t-61.5 -108t-97 -73t-122 -27h-695q-60 0 -141 43t-139 113.5t-58 147.5z" />
<glyph unicode="h" horiz-adv-x="1556" d="M78 -2v1074h304v-1074h-304zM578 404v261h572v411h311v-1078h-311v406h-572z" />
<glyph unicode="i" horiz-adv-x="501" d="M101 0v1074h309v-1074h-309z" />
<glyph unicode="j" horiz-adv-x="1075" d="M44 0v258h466q52 0 92.5 25.5t62 63t21.5 72.5v655h311v-793q0 -52 -43.5 -119.5t-115.5 -114.5t-152 -47h-642z" />
<glyph unicode="k" horiz-adv-x="1562" d="M68 0v1074h304v-1074h-304zM561 422v248l488 404h412l-615 -524l678 -550h-452z" />
<glyph unicode="l" horiz-adv-x="1326" d="M78 280v794h298v-646q0 -54 30 -94.5t70 -61t66 -20.5h734v-254h-900q-72 0 -141 51.5t-113 120.5t-44 110z" />
<glyph unicode="m" horiz-adv-x="1984" d="M68 0v828q0 60 29 110.5t73 85t94 53.5t86 19q105 0 176 -53.5t148 -183.5l308 -555l316 556q62 116 134.5 176t179.5 60q64 0 119 -24.5t94.5 -66.5t60 -92.5t20.5 -97.5v-815h-310v667q0 16 -14 28.5t-26 12.5q-33 0 -46 -29l-373 -679h-294l-384 682q-3 12 -13 22 t-20.5 15t-16.5 5q-15 0 -26 -15t-11 -32v-677h-304z" />
<glyph unicode="n" horiz-adv-x="1682" d="M78 0v856q0 22 14.5 61t48.5 80.5t89.5 70t134.5 28.5q100 0 156.5 -33t91.5 -72l525 -619q25 -34 42.5 -43t40.5 -9q27 0 33.5 16t6.5 45v693h309v-841q0 -46 -29 -109.5t-94 -111t-165 -47.5q-102 0 -151.5 28t-106.5 104l-522 630q-24 33 -39 42t-36 9 q-15 0 -30 -10.5t-15 -30.5v-737h-304z" />
<glyph unicode="o" d="M68 337v403q0 66 28.5 126.5t76 107t103.5 73.5t106 27h814q55 0 135.5 -36t142.5 -117t62 -209v-386q0 -90 -50 -165t-121.5 -119t-126.5 -44h-826q-102 0 -181 53.5t-121 133t-42 152.5zM384 454q2 -75 41 -127t117 -52h530q65 0 110 35t45 117v221q0 70 -47.5 118.5 t-149.5 48.5h-476q-28 0 -68.5 -21t-71 -55.5t-30.5 -73.5v-211z" />
<glyph unicode="p" horiz-adv-x="1506" d="M68 -2v663h1004q21 0 41 23t20 52q0 28 -16.5 46.5t-45.5 27.5t-57 9h-946v255h1159q121 0 169.5 -58.5t48.5 -147.5v-252q0 -90 -43.5 -152.5t-145.5 -62.5h-880v-403h-308z" />
<glyph unicode="q" horiz-adv-x="1593" d="M68 310v461q0 40 23.5 92.5t63.5 101t93.5 80t110.5 31.5h884q37 0 89 -25.5t98 -68t76 -98t30 -113.5v-455q0 -51 -20 -104.5t-63 -103t-110 -79t-156 -29.5h-253v-149h-264v149h-206q-76 0 -148 27t-128.5 73t-88 101.5t-31.5 108.5zM376 467q0 -70 36.5 -125t88.5 -55 h163v149h274v-153l140 1q37 0 72 20.5t56 54t21 72.5v248q0 34 -24.5 66.5t-60.5 52.5t-65 20h-539q-32 0 -69 -21t-63.5 -55t-27.5 -74z" />
<glyph unicode="r" horiz-adv-x="1583" d="M68 -2v656h958q40 0 71.5 23.5t31.5 61.5q0 15 -10.5 35t-32 34t-54.5 14h-964v252h1176q107 0 154 -59.5t47 -139.5v-217q0 -68 -23.5 -100t-96.5 -71q47 -26 67 -40t49.5 -60.5t58 -138t56.5 -250.5h-318q-36 200 -69 304.5t-91 104.5h-702v-409h-308z" />
<glyph unicode="s" horiz-adv-x="1531" d="M56 -2v264h998q26 0 55 19.5t29 58.5q0 21 -12 39.5t-37 30t-54 11.5h-755q-54 0 -96.5 27.5t-65.5 63.5t-23 60v348q0 45 50 99.5t129 54.5h1117v-255h-922q-29 0 -46 -24t-17 -50q0 -24 23.5 -51t66.5 -27h757q101 0 149 -52t48 -136v-315q0 -67 -39.5 -116.5 t-110.5 -49.5h-1244z" />
<glyph unicode="t" horiz-adv-x="1878" d="M32 818v258h862v-1076h-304v818h-558zM977 -2v1076h861v-259h-557v-817h-304z" />
<glyph unicode="u" horiz-adv-x="1500" d="M68 344v730h304v-650q0 -44 26 -81.5t61 -59t61 -21.5h466q30 0 62.5 25.5t54 60t21.5 59.5v667h317v-782q0 -55 -42.5 -124.5t-107 -119.5t-127.5 -50h-758q-92 0 -170 53.5t-123 135t-45 157.5z" />
<glyph unicode="v" horiz-adv-x="1648" d="M14 1074h350l402 -725q18 -32 26.5 -42.5t27.5 -10.5q22 0 31 11.5t26 41.5l405 725h355l-508 -922q-26 -46 -60.5 -85t-97 -68.5t-149.5 -29.5q-83 0 -147.5 31t-103.5 72.5t-53 73.5z" />
<glyph unicode="w" horiz-adv-x="2198" d="M9 1077h344l260 -690q12 -28 19.5 -35.5t19.5 -7.5q22 0 32 10t20 44l196 679h384l180 -679q9 -36 21.5 -47t28.5 -11q38 0 56 58l249 679h351l-330 -887q-30 -78 -64.5 -125t-95 -72t-153.5 -25q-243 0 -309 228l-134 462l-139 -454q-23 -71 -62.5 -123.5t-99 -82.5 t-139.5 -30q-55 0 -115.5 28t-112.5 83t-79 128z" />
<glyph unicode="x" horiz-adv-x="1666" d="M9 -2l533 535l-470 539h378l378 -405l387 405h401l-489 -543l529 -529h-430l-390 401l-389 -403h-438z" />
<glyph unicode="y" horiz-adv-x="1476" d="M54 710l2 366h297v-258q0 -29 20 -65.5t52.5 -63.5t70.5 -27h461q46 0 82.5 25t56 60t19.5 62l2 267h297v-402q0 -70 -39.5 -131t-103.5 -97t-131 -36h-758q-80 0 -143 35.5t-103.5 86t-61 100.5t-20.5 78zM473 -2v258h528v-258h-528z" />
<glyph unicode="z" horiz-adv-x="1445" d="M44 -2v244l586 412h519l-582 -390h821v-266h-1344zM78 815v259h1275v-259h-1275z" />
<glyph unicode="|" horiz-adv-x="501" d="M101 0v406h309v-406h-309zM101 714v360h309v-360h-309z" />
<glyph unicode="&#xa1;" horiz-adv-x="470" d="M117 -31v663h242v-663h-242zM117 790v255h242v-255h-242z" />
<glyph unicode="&#xa2;" horiz-adv-x="1348" d="M62 318v456q0 74 50 143.5t120 113t117 43.5h295v230h308v-230h314v-252h-314v-558h320v-266h-320v-228h-308v228h-203q-129 0 -215 53.5t-125 127.5t-39 139zM376 415q0 -36 20 -70.5t56.5 -57.5t80.5 -23l115 -3l-4 561h-96q-40 0 -80 -25t-66 -61.5t-26 -68.5v-252z " />
<glyph unicode="&#xa3;" horiz-adv-x="1158" d="M40 -2l1 251l153 -1q38 0 48 19t10 71v80h-163v241h161v165q0 62 27.5 120t86 94t146.5 36h590v-252h-351q-39 0 -62 -29t-23 -53q0 -27 24.5 -53t56.5 -26h171v-242h-251q-43 0 -73.5 -24.5t-30.5 -60.5q0 -16 25.5 -45t72.5 -29h423v-260z" />
<glyph unicode="&#xa5;" horiz-adv-x="1893" d="M35 412v250h171v-250h-171zM261 710l1 366h299v-258q0 -28 19.5 -65t52.5 -64t71 -27h460q46 0 82.5 25t56 59.5t19.5 62.5l2 267h298v-402q0 -71 -39.5 -132t-104 -96.5t-131.5 -35.5h-757q-82 0 -145 35.5t-103 86t-60.5 100.5t-20.5 78zM680 -2v258h529v-258h-529z M1684 412v250h170v-250h-170z" />
<glyph unicode="&#xa6;" horiz-adv-x="668" d="M101 0v406h309v-406h-309zM101 714v360h309v-360h-309z" />
<glyph unicode="&#xa8;" horiz-adv-x="878" d="M100 819v264h262v-264h-262zM518 819v264h264v-264h-264z" />
<glyph unicode="&#xaa;" d="M62 472q0 90 48 142.5t113 52.5h826q57 0 100 -29.5t61 -58.5v98q0 31 -18 63t-52 53t-79 21h-989v260h1115q71 0 134 -34.5t111 -89.5t74.5 -114.5t26.5 -105.5v-732h-323v76q-12 -28 -50.5 -52t-69.5 -24h-873q-35 0 -71 18.5t-58.5 51.5t-23.5 74q0 80 -1 201.5 t-1 128.5zM376 334q0 -32 21.5 -52.5t43.5 -20.5h637q22 0 46.5 22t24.5 50q0 20 -15 37t-37 27t-36 10h-609q-42 0 -59 -28.5t-17 -44.5z" />
<glyph unicode="&#xb2;" horiz-adv-x="1482" d="M68 0v262h1356v-262h-1356zM68 418v96q0 33 21.5 70.5t55.5 62t72 24.5h786q31 0 53 28.5t22 49.5q0 27 -30.5 48.5t-61.5 21.5h-891v257h1115q34 0 75 -23.5t70 -60t29 -72.5v-342q0 -46 -43 -103t-95 -57h-1178z" />
<glyph unicode="&#xb3;" horiz-adv-x="1440" d="M56 0v270h930q26 0 44.5 17t18.5 56q0 37 -22 55t-58 18h-339l287 251h275q42 0 75.5 -18.5t54.5 -44.5t32.5 -52t11.5 -45v-329q0 -75 -51 -126.5t-88 -51.5h-1171zM91 824v252h1281q-17 -22 -144 -137t-144 -115h-993z" />
<glyph unicode="&#xb4;" horiz-adv-x="708" d="M78 865l214 209h354l-216 -209h-352z" />
<glyph unicode="&#xb8;" horiz-adv-x="708" d="M78 -220l214 211h354l-216 -209z" />
<glyph unicode="&#xb9;" horiz-adv-x="643" d="M44 662v326l114 86h395v-1074h-303v793l-4 3q-5 4 -8 4l-176 -138h-18z" />
<glyph unicode="&#xba;" d="M68 337v403q0 66 28.5 126.5t76 107t103.5 73.5t106 27h814q55 0 135.5 -36t142.5 -117t62 -209v-386q0 -90 -50 -165t-121.5 -119t-126.5 -44h-826q-102 0 -181 53.5t-121 133t-42 152.5zM384 454q2 -75 41 -127t117 -52h530q65 0 110 35t45 117v221q0 70 -47.5 118.5 t-149.5 48.5h-476q-28 0 -68.5 -21t-71 -55.5t-30.5 -73.5v-211z" />
<glyph unicode="&#xbf;" horiz-adv-x="1152" d="M70 160v282q0 83 36 140.5t96 57.5h581v-252h-331q-24 0 -47 -21.5t-23 -57.5q0 -33 28.5 -57.5t68.5 -24.5h575v-258h-810q-59 0 -98.5 29t-57.5 73.5t-18 88.5zM525 793v252h258v-252h-258z" />
<glyph unicode="&#xc0;" d="M62 472q0 90 48 142.5t113 52.5h826q57 0 100 -29.5t61 -58.5v98q0 31 -18 63t-52 53t-79 21h-989v260h1115q71 0 134 -34.5t111 -89.5t74.5 -114.5t26.5 -105.5v-732h-323v76q-12 -28 -50.5 -52t-69.5 -24h-873q-35 0 -71 18.5t-58.5 51.5t-23.5 74q0 80 -1 201.5 t-1 128.5zM376 334q0 -32 21.5 -52.5t43.5 -20.5h637q22 0 46.5 22t24.5 50q0 20 -15 37t-37 27t-36 10h-609q-42 0 -59 -28.5t-17 -44.5zM324 1429h355l214 -209h-352z" />
<glyph unicode="&#xc1;" d="M62 472q0 90 48 142.5t113 52.5h826q57 0 100 -29.5t61 -58.5v98q0 31 -18 63t-52 53t-79 21h-989v260h1115q71 0 134 -34.5t111 -89.5t74.5 -114.5t26.5 -105.5v-732h-323v76q-12 -28 -50.5 -52t-69.5 -24h-873q-35 0 -71 18.5t-58.5 51.5t-23.5 74q0 80 -1 201.5 t-1 128.5zM376 334q0 -32 21.5 -52.5t43.5 -20.5h637q22 0 46.5 22t24.5 50q0 20 -15 37t-37 27t-36 10h-609q-42 0 -59 -28.5t-17 -44.5zM470 1226l214 209h354l-216 -209h-352z" />
<glyph unicode="&#xc2;" d="M62 472q0 90 48 142.5t113 52.5h826q57 0 100 -29.5t61 -58.5v98q0 31 -18 63t-52 53t-79 21h-989v260h1115q71 0 134 -34.5t111 -89.5t74.5 -114.5t26.5 -105.5v-732h-323v76q-12 -28 -50.5 -52t-69.5 -24h-873q-35 0 -71 18.5t-58.5 51.5t-23.5 74q0 80 -1 201.5 t-1 128.5zM376 334q0 -32 21.5 -52.5t43.5 -20.5h637q22 0 46.5 22t24.5 50q0 20 -15 37t-37 27t-36 10h-609q-42 0 -59 -28.5t-17 -44.5zM332 1224l214 209h354h2l214 -209h-352l-40 38q-10 -10 -20 -19.5t-20 -18.5h-352z" />
<glyph unicode="&#xc3;" d="M62 472q0 90 48 142.5t113 52.5h826q57 0 100 -29.5t61 -58.5v98q0 31 -18 63t-52 53t-79 21h-989v260h1115q71 0 134 -34.5t111 -89.5t74.5 -114.5t26.5 -105.5v-732h-323v76q-12 -28 -50.5 -52t-69.5 -24h-873q-35 0 -71 18.5t-58.5 51.5t-23.5 74q0 80 -1 201.5 t-1 128.5zM376 334q0 -32 21.5 -52.5t43.5 -20.5h637q22 0 46.5 22t24.5 50q0 20 -15 37t-37 27t-36 10h-609q-42 0 -59 -28.5t-17 -44.5zM341 1187l214 209h88h4l66 53h494l-213 -207h-2h-90l-64 -55h-497z" />
<glyph unicode="&#xc4;" d="M62 472q0 90 48 142.5t113 52.5h826q57 0 100 -29.5t61 -58.5v98q0 31 -18 63t-52 53t-79 21h-989v260h1115q71 0 134 -34.5t111 -89.5t74.5 -114.5t26.5 -105.5v-732h-323v76q-12 -28 -50.5 -52t-69.5 -24h-873q-35 0 -71 18.5t-58.5 51.5t-23.5 74q0 80 -1 201.5 t-1 128.5zM376 334q0 -32 21.5 -52.5t43.5 -20.5h637q22 0 46.5 22t24.5 50q0 20 -15 37t-37 27t-36 10h-609q-42 0 -59 -28.5t-17 -44.5zM372 1197v264h262v-264h-262zM790 1197v264h264v-264h-264z" />
<glyph unicode="&#xc5;" d="M62 472q0 90 48 142.5t113 52.5h826q57 0 100 -29.5t61 -58.5v98q0 31 -18 63t-52 53t-79 21h-989v260h1115q71 0 134 -34.5t111 -89.5t74.5 -114.5t26.5 -105.5v-732h-323v76q-12 -28 -50.5 -52t-69.5 -24h-873q-35 0 -71 18.5t-58.5 51.5t-23.5 74q0 80 -1 201.5 t-1 128.5zM376 334q0 -32 21.5 -52.5t43.5 -20.5h637q22 0 46.5 22t24.5 50q0 20 -15 37t-37 27t-36 10h-609q-42 0 -59 -28.5t-17 -44.5zM478 1628l432 3l-2 -432h-428zM595 1313h197v199h-197v-199z" />
<glyph unicode="&#xc6;" horiz-adv-x="2730" d="M62 472q0 90 48 142.5t113 52.5h826q57 0 100 -29.5t61 -58.5v98q0 31 -18 63t-52 53t-79 21h-989v260h1115q48 0 92 -17t79 -45q40 30 83.5 47t80.5 17h891q38 0 85.5 -24t85.5 -59t61.5 -75t23.5 -75v-259q0 -72 -38 -121.5t-127 -49.5l-982 2v-53q0 -42 30.5 -76 t68.5 -34h1032v-254h-1443v76q-12 -28 -50.5 -52t-69.5 -24h-873q-35 0 -71 18.5t-58.5 51.5t-23.5 74q0 80 -1 201.5t-1 128.5zM376 334q0 -32 21.5 -52.5t43.5 -20.5h637q22 0 46.5 22t24.5 50q0 20 -15 37t-37 27t-36 10h-609q-42 0 -59 -28.5t-17 -44.5zM1522 661h844 l1 81q0 33 -28 54.5t-64 21.5l-645 1q-42 0 -75 -35.5t-33 -78.5v-44z" />
<glyph unicode="&#xc7;" horiz-adv-x="1348" d="M62 318v456q0 74 50 143.5t120 113t117 43.5h917v-252h-718q-40 0 -80 -25t-66 -61.5t-26 -68.5v-252q0 -36 20 -70.5t56.5 -57.5t80.5 -23h739v-266h-831q-129 0 -215 53.5t-125 127.5t-39 139zM400 -205l214 211h354l-216 -209z" />
<glyph unicode="&#xc8;" horiz-adv-x="1575" d="M56 315v467q0 54 29.5 106.5t78 95.5t102.5 67.5t99 24.5h891q38 0 85.5 -24t86 -59t62 -75t23.5 -75v-259q0 -72 -38.5 -121.5t-127.5 -49.5l-982 2v-53q0 -40 31.5 -75t67.5 -35h1032v-254h-1090q-109 0 -188.5 57.5t-120.5 134t-41 125.5zM365 661h844l1 81 q0 34 -28 55t-64 21l-645 1q-41 0 -74.5 -36t-33.5 -78v-44zM416 1429h355l214 -209h-352z" />
<glyph unicode="&#xc9;" horiz-adv-x="1575" d="M56 315v467q0 54 29.5 106.5t78 95.5t102.5 67.5t99 24.5h891q38 0 85.5 -24t86 -59t62 -75t23.5 -75v-259q0 -72 -38.5 -121.5t-127.5 -49.5l-982 2v-53q0 -40 31.5 -75t67.5 -35h1032v-254h-1090q-109 0 -188.5 57.5t-120.5 134t-41 125.5zM365 661h844l1 81 q0 34 -28 55t-64 21l-645 1q-41 0 -74.5 -36t-33.5 -78v-44zM584 1229l214 209h354l-216 -209h-352z" />
<glyph unicode="&#xca;" horiz-adv-x="1575" d="M56 315v467q0 54 29.5 106.5t78 95.5t102.5 67.5t99 24.5h891q38 0 85.5 -24t86 -59t62 -75t23.5 -75v-259q0 -72 -38.5 -121.5t-127.5 -49.5l-982 2v-53q0 -40 31.5 -75t67.5 -35h1032v-254h-1090q-109 0 -188.5 57.5t-120.5 134t-41 125.5zM365 661h844l1 81 q0 34 -28 55t-64 21l-645 1q-41 0 -74.5 -36t-33.5 -78v-44zM382 1220l214 209h354h2l214 -209h-352l-40 38q-10 -10 -20 -19.5t-20 -18.5h-352z" />
<glyph unicode="&#xcb;" horiz-adv-x="1575" d="M56 315v467q0 54 29.5 106.5t78 95.5t102.5 67.5t99 24.5h891q38 0 85.5 -24t86 -59t62 -75t23.5 -75v-259q0 -72 -38.5 -121.5t-127.5 -49.5l-982 2v-53q0 -40 31.5 -75t67.5 -35h1032v-254h-1090q-109 0 -188.5 57.5t-120.5 134t-41 125.5zM365 661h844l1 81 q0 34 -28 55t-64 21l-645 1q-41 0 -74.5 -36t-33.5 -78v-44zM450 1206v264h262v-264h-262zM868 1206v264h264v-264h-264z" />
<glyph unicode="&#xcc;" horiz-adv-x="501" d="M101 0v1074h309v-1074h-309zM-155 1433h355l214 -209h-352z" />
<glyph unicode="&#xcd;" horiz-adv-x="501" d="M101 0v1074h309v-1074h-309zM87 1217l214 209h354l-216 -209h-352z" />
<glyph unicode="&#xce;" horiz-adv-x="501" d="M-116 1228l214 210h355h1l214 -210h-352l-39 40l-20 -20q-10 -10 -21 -20h-352zM100 0v1074h309v-1074h-309z" />
<glyph unicode="&#xcf;" horiz-adv-x="501" d="M101 0v1074h309v-1074h-309zM-84 1195v264h262v-264h-262zM334 1195v264h264v-264h-264z" />
<glyph unicode="&#xd0;" horiz-adv-x="1596" d="M41 353v309h787v-309h-364v-91h566q91 0 135.5 51t44.5 128v218q-1 48 -22.5 84.5t-63.5 57.5t-104 21h-872v252h1044q92 0 167.5 -52.5t117.5 -126.5t42 -131v-478q0 -75 -53.5 -141t-128 -106.5t-127.5 -40.5h-1056v355h-113z" />
<glyph unicode="&#xd1;" horiz-adv-x="1682" d="M78 0v856q0 22 14.5 61t48.5 80.5t89.5 70t134.5 28.5q100 0 156.5 -33t91.5 -72l525 -619q25 -34 42.5 -43t40.5 -9q27 0 33.5 16t6.5 45v693h309v-841q0 -46 -29 -109.5t-94 -111t-165 -47.5q-102 0 -151.5 28t-106.5 104l-522 630q-24 33 -39 42t-36 9 q-15 0 -30 -10.5t-15 -30.5v-737h-304zM484 1198l214 209h88h4l66 53h494l-213 -207h-2h-90l-64 -55h-497z" />
<glyph unicode="&#xd2;" d="M68 337v403q0 66 28.5 126.5t76 107t103.5 73.5t106 27h814q55 0 135.5 -36t142.5 -117t62 -209v-386q0 -90 -50 -165t-121.5 -119t-126.5 -44h-826q-102 0 -181 53.5t-121 133t-42 152.5zM384 454q2 -75 41 -127t117 -52h530q65 0 110 35t45 117v221q0 70 -47.5 118.5 t-149.5 48.5h-476q-28 0 -68.5 -21t-71 -55.5t-30.5 -73.5v-211zM431 1432h355l214 -209h-352z" />
<glyph unicode="&#xd3;" d="M68 337v403q0 66 28.5 126.5t76 107t103.5 73.5t106 27h814q55 0 135.5 -36t142.5 -117t62 -209v-386q0 -90 -50 -165t-121.5 -119t-126.5 -44h-826q-102 0 -181 53.5t-121 133t-42 152.5zM384 454q2 -75 41 -127t117 -52h530q65 0 110 35t45 117v221q0 70 -47.5 118.5 t-149.5 48.5h-476q-28 0 -68.5 -21t-71 -55.5t-30.5 -73.5v-211zM616 1226l214 209h354l-216 -209h-352z" />
<glyph unicode="&#xd4;" d="M68 337v403q0 66 28.5 126.5t76 107t103.5 73.5t106 27h814q55 0 135.5 -36t142.5 -117t62 -209v-386q0 -90 -50 -165t-121.5 -119t-126.5 -44h-826q-102 0 -181 53.5t-121 133t-42 152.5zM384 454q2 -75 41 -127t117 -52h530q65 0 110 35t45 117v221q0 70 -47.5 118.5 t-149.5 48.5h-476q-28 0 -68.5 -21t-71 -55.5t-30.5 -73.5v-211zM404 1223l214 209h354h2l214 -209h-352l-40 38q-10 -10 -20 -19.5t-20 -18.5h-352z" />
<glyph unicode="&#xd5;" d="M68 337v403q0 66 28.5 126.5t76 107t103.5 73.5t106 27h814q55 0 135.5 -36t142.5 -117t62 -209v-386q0 -90 -50 -165t-121.5 -119t-126.5 -44h-826q-102 0 -181 53.5t-121 133t-42 152.5zM384 454q2 -75 41 -127t117 -52h530q65 0 110 35t45 117v221q0 70 -47.5 118.5 t-149.5 48.5h-476q-28 0 -68.5 -21t-71 -55.5t-30.5 -73.5v-211zM445 1186l214 209h88h4l66 53h494l-213 -207h-2h-90l-64 -55h-497z" />
<glyph unicode="&#xd6;" d="M68 337v403q0 66 28.5 126.5t76 107t103.5 73.5t106 27h814q55 0 135.5 -36t142.5 -117t62 -209v-386q0 -90 -50 -165t-121.5 -119t-126.5 -44h-826q-102 0 -181 53.5t-121 133t-42 152.5zM384 454q2 -75 41 -127t117 -52h530q65 0 110 35t45 117v221q0 70 -47.5 118.5 t-149.5 48.5h-476q-28 0 -68.5 -21t-71 -55.5t-30.5 -73.5v-211zM464 1184v264h262v-264h-262zM882 1184v264h264v-264h-264z" />
<glyph unicode="&#xd8;" horiz-adv-x="1612" d="M-68 -46l213 176q-38 49 -57.5 102.5t-19.5 104.5v403q0 66 28.5 126.5t76 107t103.5 73.5t106 27h814q24 0 63 -10l75 62h354l-227 -189q75 -90 75 -225v-386q0 -90 -50 -165t-121.5 -119t-126.5 -44h-826q-26 0 -68 6q-36 -30 -45 -36.5t-15 -11.5zM384 454 q0 -58 25 -102l554 463h-409q-28 0 -68.5 -21t-71 -55.5t-30.5 -73.5v-211zM667 275h405q65 0 110 35t45 117v221q0 41 -18 79q-59 -50 -165 -138t-241 -201t-136 -113z" />
<glyph unicode="&#xd9;" horiz-adv-x="1500" d="M68 344v730h304v-650q0 -44 26 -81.5t61 -59t61 -21.5h466q30 0 62.5 25.5t54 60t21.5 59.5v667h317v-782q0 -55 -42.5 -124.5t-107 -119.5t-127.5 -50h-758q-92 0 -170 53.5t-123 135t-45 157.5zM383 1412h355l214 -209h-352z" />
<glyph unicode="&#xda;" horiz-adv-x="1500" d="M68 344v730h304v-650q0 -44 26 -81.5t61 -59t61 -21.5h466q30 0 62.5 25.5t54 60t21.5 59.5v667h317v-782q0 -55 -42.5 -124.5t-107 -119.5t-127.5 -50h-758q-92 0 -170 53.5t-123 135t-45 157.5zM562 1187l214 209h354l-216 -209h-352z" />
<glyph unicode="&#xdb;" horiz-adv-x="1500" d="M68 344v730h304v-650q0 -44 26 -81.5t61 -59t61 -21.5h466q30 0 62.5 25.5t54 60t21.5 59.5v667h317v-782q0 -55 -42.5 -124.5t-107 -119.5t-127.5 -50h-758q-92 0 -170 53.5t-123 135t-45 157.5zM353 1158l214 209h354h2l214 -209h-352l-40 38q-10 -10 -20 -19.5 t-20 -18.5h-352z" />
<glyph unicode="&#xdc;" horiz-adv-x="1500" d="M68 344v730h304v-650q0 -44 26 -81.5t61 -59t61 -21.5h466q30 0 62.5 25.5t54 60t21.5 59.5v667h317v-782q0 -55 -42.5 -124.5t-107 -119.5t-127.5 -50h-758q-92 0 -170 53.5t-123 135t-45 157.5zM404 1166v264h262v-264h-262zM822 1166v264h264v-264h-264z" />
<glyph unicode="&#xdd;" horiz-adv-x="1476" d="M54 710l2 366h297v-258q0 -29 20 -65.5t52.5 -63.5t70.5 -27h461q46 0 82.5 25t56 60t19.5 62l2 267h297v-402q0 -70 -39.5 -131t-103.5 -97t-131 -36h-758q-80 0 -143 35.5t-103.5 86t-61 100.5t-20.5 78zM473 -2v258h528v-258h-528zM538 1164l214 209h354l-216 -209 h-352z" />
<glyph unicode="&#xde;" horiz-adv-x="1506" d="M68 -2v535h1004q22 0 41.5 23t19.5 54q0 40 -35.5 61.5t-83.5 21.5h-946v381l308 -2v-124h851q120 0 169 -59t49 -149v-252q0 -54 -17 -102.5t-59.5 -79.5t-112.5 -31h-880v-277h-308z" />
<glyph unicode="&#xdf;" horiz-adv-x="1517" d="M68 -230v1306h1131q51 0 96.5 -32t73 -77.5t27.5 -82.5v-153q0 -42 -11 -68t-30.5 -45t-64.5 -54q71 -49 113 -89.5t42 -88.5v-214q0 -30 -16 -70t-52.5 -71t-92.5 -31h-598v260h375q29 0 46 20t17 48q0 75 -75 75h-673v-633h-308zM376 828l2 -166h632q20 0 52.5 21.5 t32.5 59.5q0 27 -26 56t-71 29h-622z" />
<glyph unicode="&#xe0;" d="M62 472q0 90 48 142.5t113 52.5h826q57 0 100 -29.5t61 -58.5v98q0 31 -18 63t-52 53t-79 21h-989v260h1115q71 0 134 -34.5t111 -89.5t74.5 -114.5t26.5 -105.5v-732h-323v76q-12 -28 -50.5 -52t-69.5 -24h-873q-35 0 -71 18.5t-58.5 51.5t-23.5 74q0 80 -1 201.5 t-1 128.5zM324 1429h355l213 -209h-351zM376 334q0 -32 21.5 -52.5t43.5 -20.5h637q22 0 46.5 22t24.5 50q0 20 -15 37t-37 27t-36 10h-609q-42 0 -59 -28.5t-17 -44.5z" />
<glyph unicode="&#xe1;" d="M62 472q0 90 48 142.5t113 52.5h826q57 0 100 -29.5t61 -58.5v98q0 31 -18 63t-52 53t-79 21h-989v260h1115q71 0 134 -34.5t111 -89.5t74.5 -114.5t26.5 -105.5v-732h-323v76q-12 -28 -50.5 -52t-69.5 -24h-873q-35 0 -71 18.5t-58.5 51.5t-23.5 74q0 80 -1 201.5 t-1 128.5zM376 334q0 -32 21.5 -52.5t43.5 -20.5h637q22 0 46.5 22t24.5 50q0 20 -15 37t-37 27t-36 10h-609q-42 0 -59 -28.5t-17 -44.5zM470 1226l213 209h355l-216 -209h-352z" />
<glyph unicode="&#xe2;" d="M62 472q0 90 48 142.5t113 52.5h826q57 0 100 -29.5t61 -58.5v98q0 31 -18 63t-52 53t-79 21h-989v260h1115q71 0 134 -34.5t111 -89.5t74.5 -114.5t26.5 -105.5v-732h-323v76q-12 -28 -50.5 -52t-69.5 -24h-873q-35 0 -71 18.5t-58.5 51.5t-23.5 74q0 80 -1 201.5 t-1 128.5zM332 1224l213 209h355h2l213 -209h-351l-40 38q-10 -10 -20 -19t-21 -19h-351zM376 334q0 -32 21.5 -52.5t43.5 -20.5h637q22 0 46.5 22t24.5 50q0 20 -15 37t-37 27t-36 10h-609q-42 0 -59 -28.5t-17 -44.5z" />
<glyph unicode="&#xe3;" d="M62 472q0 90 48 142.5t113 52.5h826q57 0 100 -29.5t61 -58.5v98q0 31 -18 63t-52 53t-79 21h-989v260h1115q71 0 134 -34.5t111 -89.5t74.5 -114.5t26.5 -105.5v-732h-323v76q-12 -28 -50.5 -52t-69.5 -24h-873q-35 0 -71 18.5t-58.5 51.5t-23.5 74q0 80 -1 201.5 t-1 128.5zM341 1187l213 209h90h2l66 54h496l-214 -207h-2h-90l-65 -56h-496zM376 334q0 -32 21.5 -52.5t43.5 -20.5h637q22 0 46.5 22t24.5 50q0 20 -15 37t-37 27t-36 10h-609q-42 0 -59 -28.5t-17 -44.5z" />
<glyph unicode="&#xe4;" d="M62 472q0 90 48 142.5t113 52.5h826q57 0 100 -29.5t61 -58.5v98q0 31 -18 63t-52 53t-79 21h-989v260h1115q71 0 134 -34.5t111 -89.5t74.5 -114.5t26.5 -105.5v-732h-323v76q-12 -28 -50.5 -52t-69.5 -24h-873q-35 0 -71 18.5t-58.5 51.5t-23.5 74q0 80 -1 201.5 t-1 128.5zM372 1196v265h262v-265h-262zM376 334q0 -32 21.5 -52.5t43.5 -20.5h637q22 0 46.5 22t24.5 50q0 20 -15 37t-37 27t-36 10h-609q-42 0 -59 -28.5t-17 -44.5zM790 1196v265h264v-265h-264z" />
<glyph unicode="&#xe5;" d="M62 472q0 90 48 142.5t113 52.5h826q57 0 100 -29.5t61 -58.5v98q0 31 -18 63t-52 53t-79 21h-989v260h1115q71 0 134 -34.5t111 -89.5t74.5 -114.5t26.5 -105.5v-732h-323v76q-12 -28 -50.5 -52t-69.5 -24h-873q-35 0 -71 18.5t-58.5 51.5t-23.5 74q0 80 -1 201.5 t-1 128.5zM376 334q0 -32 21.5 -52.5t43.5 -20.5h637q22 0 46.5 22t24.5 50q0 20 -15 37t-37 27t-36 10h-609q-42 0 -59 -28.5t-17 -44.5zM478 1628l431 3l-1 -433h-429zM595 1313h196v198h-196v-198z" />
<glyph unicode="&#xe6;" horiz-adv-x="2511" d="M62 472q0 90 48 142.5t113 52.5h826q57 0 100 -29.5t61 -58.5v98q0 31 -18 63t-52 53t-79 21h-989v260h1115q54 0 104.5 -20.5t90.5 -55.5q44 31 90 50t79 19h881v-245h-782q-44 0 -80 -32t-36 -73v-63h892v-241h-886v-87q0 -32 38 -56t72 -24h805v-249l-1245 1v76 q-12 -28 -50.5 -52t-69.5 -24h-873q-35 0 -71 18.5t-58.5 51.5t-23.5 74q0 80 -1 201.5t-1 128.5zM376 334q0 -32 21.5 -52.5t43.5 -20.5h637q22 0 46.5 22t24.5 50q0 20 -15 37t-37 27t-36 10h-609q-42 0 -59 -28.5t-17 -44.5z" />
<glyph unicode="&#xe7;" horiz-adv-x="1348" d="M62 318v456q0 74 50 143.5t120 113t117 43.5h917v-252h-718q-40 0 -80 -25t-66 -61.5t-26 -68.5v-252q0 -36 20 -70.5t56.5 -57.5t80.5 -23h739v-266h-831q-129 0 -215 53.5t-125 127.5t-39 139zM401 -204l213 210h355l-216 -208z" />
<glyph unicode="&#xe8;" horiz-adv-x="1368" d="M78 326v450q0 69 55 139t131 114.5t130 44.5h880v-246h-783q-29 0 -55 -14.5t-43 -38.5t-17 -51v-63h892v-243h-886v-86q0 -32 37.5 -56t71.5 -24h806v-254h-885q-92 0 -169 53t-121 129t-44 146zM436 1427h355l214 -209h-352z" />
<glyph unicode="&#xe9;" horiz-adv-x="1368" d="M78 326v450q0 69 55 139t131 114.5t130 44.5h880v-246h-783q-29 0 -55 -14.5t-43 -38.5t-17 -51v-63h892v-243h-886v-86q0 -32 37.5 -56t71.5 -24h806v-254h-885q-92 0 -169 53t-121 129t-44 146zM569 1218l214 209h354l-216 -209h-352z" />
<glyph unicode="&#xea;" horiz-adv-x="1368" d="M78 326v450q0 69 55 139t131 114.5t130 44.5h880v-246h-783q-29 0 -55 -14.5t-43 -38.5t-17 -51v-63h892v-243h-886v-86q0 -32 37.5 -56t71.5 -24h806v-254h-885q-92 0 -169 53t-121 129t-44 146zM355 1195l214 209h354h2l214 -209h-352l-40 38q-10 -10 -20 -19.5 t-20 -18.5h-352z" />
<glyph unicode="&#xeb;" horiz-adv-x="1368" d="M78 326v450q0 69 55 139t131 114.5t130 44.5h880v-246h-783q-29 0 -55 -14.5t-43 -38.5t-17 -51v-63h892v-243h-886v-86q0 -32 37.5 -56t71.5 -24h806v-254h-885q-92 0 -169 53t-121 129t-44 146zM446 1195v264h262v-264h-262zM864 1195v264h264v-264h-264z" />
<glyph unicode="&#xec;" horiz-adv-x="501" d="M-155 1433h355l213 -209h-351zM101 0v1074h309v-1074h-309z" />
<glyph unicode="&#xed;" horiz-adv-x="501" d="M88 1216l213 210h355l-216 -210h-352zM101 0v1074h309v-1074h-309z" />
<glyph unicode="&#xee;" horiz-adv-x="501" d="M-130 1228l213 210h355h2l212 -210h-351l-40 40l-20 -20l-20 -20h-351zM85 0v1074h308v-1074h-308z" />
<glyph unicode="&#xef;" horiz-adv-x="501" d="M-85 1195v265h263v-265h-263zM101 0v1074h309v-1074h-309zM333 1195v265h265v-265h-265z" />
<glyph unicode="&#xf0;" horiz-adv-x="2127" d="M41 353v309h787v-309h-364v-91h566q91 0 135.5 51t44.5 128v218q-1 48 -22.5 84.5t-63.5 57.5t-104 21h-872v252h1044q92 0 167.5 -52.5t117.5 -126.5t42 -131v-478q0 -75 -53.5 -141t-128 -106.5t-127.5 -40.5h-1056v355h-113z" />
<glyph unicode="&#xf1;" horiz-adv-x="1682" d="M78 0v856q0 22 14.5 61t48.5 80.5t89.5 70t134.5 28.5q100 0 156.5 -33t91.5 -72l525 -619q25 -34 42.5 -43t40.5 -9q27 0 33.5 16t6.5 45v693h309v-841q0 -46 -29 -109.5t-94 -111t-165 -47.5q-102 0 -151.5 28t-106.5 104l-522 630q-24 33 -39 42t-36 9 q-15 0 -30 -10.5t-15 -30.5v-737h-304zM484 1198l214 209h89h3l66 54h494l-213 -208h-2h-90l-65 -55h-496z" />
<glyph unicode="&#xf2;" d="M68 337v403q0 66 28.5 126.5t76 107t103.5 73.5t106 27h814q55 0 135.5 -36t142.5 -117t62 -209v-386q0 -90 -50 -165t-121.5 -119t-126.5 -44h-826q-102 0 -181 53.5t-121 133t-42 152.5zM384 454q2 -75 41 -127t117 -52h530q65 0 110 35t45 117v221q0 70 -47.5 118.5 t-149.5 48.5h-476q-28 0 -68.5 -21t-71 -55.5t-30.5 -73.5v-211zM431 1432h356l213 -210h-352z" />
<glyph unicode="&#xf3;" d="M68 337v403q0 66 28.5 126.5t76 107t103.5 73.5t106 27h814q55 0 135.5 -36t142.5 -117t62 -209v-386q0 -90 -50 -165t-121.5 -119t-126.5 -44h-826q-102 0 -181 53.5t-121 133t-42 152.5zM384 454q2 -75 41 -127t117 -52h530q65 0 110 35t45 117v221q0 70 -47.5 118.5 t-149.5 48.5h-476q-28 0 -68.5 -21t-71 -55.5t-30.5 -73.5v-211zM616 1226l214 209h354l-216 -209h-352z" />
<glyph unicode="&#xf4;" d="M68 337v403q0 66 28.5 126.5t76 107t103.5 73.5t106 27h814q55 0 135.5 -36t142.5 -117t62 -209v-386q0 -90 -50 -165t-121.5 -119t-126.5 -44h-826q-102 0 -181 53.5t-121 133t-42 152.5zM384 454q2 -75 41 -127t117 -52h530q65 0 110 35t45 117v221q0 70 -47.5 118.5 t-149.5 48.5h-476q-28 0 -68.5 -21t-71 -55.5t-30.5 -73.5v-211zM404 1222l213 210h355h2l213 -210h-351l-40 39q-10 -10 -20 -19.5t-20 -19.5h-352z" />
<glyph unicode="&#xf5;" d="M68 337v403q0 66 28.5 126.5t76 107t103.5 73.5t106 27h814q55 0 135.5 -36t142.5 -117t62 -209v-386q0 -90 -50 -165t-121.5 -119t-126.5 -44h-826q-102 0 -181 53.5t-121 133t-42 152.5zM384 454q2 -75 41 -127t117 -52h530q65 0 110 35t45 117v221q0 70 -47.5 118.5 t-149.5 48.5h-476q-28 0 -68.5 -21t-71 -55.5t-30.5 -73.5v-211zM446 1186l213 209h89h3l67 53h494l-214 -207h-2h-90l-65 -55h-495z" />
<glyph unicode="&#xf6;" d="M68 337v403q0 66 28.5 126.5t76 107t103.5 73.5t106 27h814q55 0 135.5 -36t142.5 -117t62 -209v-386q0 -90 -50 -165t-121.5 -119t-126.5 -44h-826q-102 0 -181 53.5t-121 133t-42 152.5zM384 454q2 -75 41 -127t117 -52h530q65 0 110 35t45 117v221q0 70 -47.5 118.5 t-149.5 48.5h-476q-28 0 -68.5 -21t-71 -55.5t-30.5 -73.5v-211zM464 1184v264h263v-264h-263zM882 1184v264h264v-264h-264z" />
<glyph unicode="&#xf8;" horiz-adv-x="1612" d="M-68 -46l213 176q-38 49 -57.5 102.5t-19.5 104.5v403q0 66 28.5 126.5t76 107t103.5 73.5t106 27h814q24 0 63 -10l75 62h354l-227 -189q75 -90 75 -225v-386q0 -90 -50 -165t-121.5 -119t-126.5 -44h-826q-26 0 -68 6q-36 -30 -45 -36.5t-15 -11.5zM384 454 q0 -58 25 -102l554 463h-409q-28 0 -68.5 -21t-71 -55.5t-30.5 -73.5v-211zM667 275h405q65 0 110 35t45 117v221q0 41 -18 79q-59 -50 -165 -138t-241 -201t-136 -113z" />
<glyph unicode="&#xf9;" horiz-adv-x="1500" d="M68 344v730h304v-650q0 -44 26 -81.5t61 -59t61 -21.5h466q30 0 62.5 25.5t54 60t21.5 59.5v667h317v-782q0 -55 -42.5 -124.5t-107 -119.5t-127.5 -50h-758q-92 0 -170 53.5t-123 135t-45 157.5zM382 1412h355l214 -209h-352z" />
<glyph unicode="&#xfa;" horiz-adv-x="1500" d="M68 344v730h304v-650q0 -44 26 -81.5t61 -59t61 -21.5h466q30 0 62.5 25.5t54 60t21.5 59.5v667h317v-782q0 -55 -42.5 -124.5t-107 -119.5t-127.5 -50h-758q-92 0 -170 53.5t-123 135t-45 157.5zM562 1187l214 209h354l-216 -209h-352z" />
<glyph unicode="&#xfb;" horiz-adv-x="1500" d="M68 344v730h304v-650q0 -44 26 -81.5t61 -59t61 -21.5h466q30 0 62.5 25.5t54 60t21.5 59.5v667h317v-782q0 -55 -42.5 -124.5t-107 -119.5t-127.5 -50h-758q-92 0 -170 53.5t-123 135t-45 157.5zM353 1158l214 209h355h1l214 -209h-352l-40 38q-10 -10 -20 -19t-20 -19 h-352z" />
<glyph unicode="&#xfc;" horiz-adv-x="1500" d="M68 344v730h304v-650q0 -44 26 -81.5t61 -59t61 -21.5h466q30 0 62.5 25.5t54 60t21.5 59.5v667h317v-782q0 -55 -42.5 -124.5t-107 -119.5t-127.5 -50h-758q-92 0 -170 53.5t-123 135t-45 157.5zM404 1166v264h263v-264h-263zM822 1166v264h264v-264h-264z" />
<glyph unicode="&#xfd;" horiz-adv-x="1476" d="M54 710l2 366h297v-258q0 -29 20 -65.5t52.5 -63.5t70.5 -27h461q46 0 82.5 25t56 60t19.5 62l2 267h297v-402q0 -70 -39.5 -131t-103.5 -97t-131 -36h-758q-80 0 -143 35.5t-103.5 86t-61 100.5t-20.5 78zM473 -2v258h528v-258h-528zM539 1164l214 209h355l-217 -209 h-352z" />
<glyph unicode="&#xfe;" horiz-adv-x="2009" d="M68 -2v535h1004q22 0 41.5 23t19.5 54q0 40 -35.5 61.5t-83.5 21.5h-946v381l308 -2v-124h851q120 0 169 -59t49 -149v-252q0 -54 -17 -102.5t-59.5 -79.5t-112.5 -31h-880v-277h-308z" />
<glyph unicode="&#xff;" horiz-adv-x="1476" d="M54 710l2 366h297v-258q0 -29 20 -65.5t52.5 -63.5t70.5 -27h461q46 0 82.5 25t56 60t19.5 62l2 267h297v-402q0 -70 -39.5 -131t-103.5 -97t-131 -36h-758q-80 0 -143 35.5t-103.5 86t-61 100.5t-20.5 78zM473 -2v258h528v-258h-528zM384 1149v264h262v-264h-262z M802 1149v264h264v-264h-264z" />
<glyph unicode="&#x152;" horiz-adv-x="3189" d="M1670 315v467q0 54 29.5 106.5t78 95.5t102.5 67.5t99 24.5h891q38 0 85.5 -24t86 -59t62 -75t23.5 -75v-259q0 -72 -38.5 -121.5t-127.5 -49.5l-982 2v-53q0 -40 31.5 -75t67.5 -35h1032v-254h-1090q-109 0 -188.5 57.5t-120.5 134t-41 125.5zM1979 661h844l1 81 q0 34 -28 55t-64 21l-645 1q-41 0 -74.5 -36t-33.5 -78v-44zM68 337v403q0 66 28.5 126.5t76 107t103.5 73.5t106 27h814q55 0 135.5 -36t142.5 -117t62 -209v-386q0 -90 -50 -165t-121.5 -119t-126.5 -44h-826q-102 0 -181 53.5t-121 133t-42 152.5zM384 454q2 -75 41 -127 t117 -52h530q65 0 110 35t45 117v221q0 70 -47.5 118.5t-149.5 48.5h-476q-28 0 -68.5 -21t-71 -55.5t-30.5 -73.5v-211z" />
<glyph unicode="&#x153;" horiz-adv-x="2982" d="M1692 326v450q0 69 55 139t131 114.5t130 44.5h880v-246h-783q-29 0 -55 -14.5t-43 -38.5t-17 -51v-63h892v-243h-886v-86q0 -32 37.5 -56t71.5 -24h806v-254h-885q-92 0 -169 53t-121 129t-44 146zM68 337v403q0 66 28.5 126.5t76 107t103.5 73.5t106 27h814 q55 0 135.5 -36t142.5 -117t62 -209v-386q0 -90 -50 -165t-121.5 -119t-126.5 -44h-826q-102 0 -181 53.5t-121 133t-42 152.5zM384 454q2 -75 41 -127t117 -52h530q65 0 110 35t45 117v221q0 70 -47.5 118.5t-149.5 48.5h-476q-28 0 -68.5 -21t-71 -55.5t-30.5 -73.5v-211z " />
<glyph unicode="&#x178;" horiz-adv-x="1476" d="M54 710l2 366h297v-258q0 -29 20 -65.5t52.5 -63.5t70.5 -27h461q46 0 82.5 25t56 60t19.5 62l2 267h297v-402q0 -70 -39.5 -131t-103.5 -97t-131 -36h-758q-80 0 -143 35.5t-103.5 86t-61 100.5t-20.5 78zM473 -2v258h528v-258h-528z" />
<glyph unicode="&#x2c6;" horiz-adv-x="933" d="M78 865l214 209h354h2l214 -209h-352l-40 38q-10 -10 -20 -19.5t-20 -18.5h-352z" />
<glyph unicode="&#x2da;" horiz-adv-x="636" d="M92 1193l432 3l-2 -432h-428zM209 878h197v199h-197v-199z" />
<glyph unicode="&#x2dc;" horiz-adv-x="933" d="M32 865l214 209h88h4l66 53h494l-213 -207h-2h-90l-64 -55h-497z" />
<glyph unicode="&#x2000;" horiz-adv-x="815" />
<glyph unicode="&#x2001;" horiz-adv-x="1631" />
<glyph unicode="&#x2002;" horiz-adv-x="815" />
<glyph unicode="&#x2003;" horiz-adv-x="1631" />
<glyph unicode="&#x2004;" horiz-adv-x="543" />
<glyph unicode="&#x2005;" horiz-adv-x="407" />
<glyph unicode="&#x2006;" horiz-adv-x="271" />
<glyph unicode="&#x2007;" horiz-adv-x="271" />
<glyph unicode="&#x2008;" horiz-adv-x="203" />
<glyph unicode="&#x2009;" horiz-adv-x="326" />
<glyph unicode="&#x200a;" horiz-adv-x="90" />
<glyph unicode="&#x2013;" horiz-adv-x="768" d="M153 384v153h462v-153h-462z" />
<glyph unicode="&#x2014;" horiz-adv-x="1536" d="M153 384v153h1230v-153h-1230z" />
<glyph unicode="&#x2018;" horiz-adv-x="477" d="M112 656l2 250l82 166h142l-80 -162q0 2 7 4t30 2q6 0 67 -3l-1 -257h-249z" />
<glyph unicode="&#x2019;" horiz-adv-x="477" d="M91 834v256h249v-250l-84 -166h-142l80 163q0 -1 -12 -3t-33 -2q-32 0 -58 2z" />
<glyph unicode="&#x201c;" horiz-adv-x="809" d="M112 656l2 250l82 166h142l-80 -162q1 1 20.5 2t83.5 1l-1 -257h-249zM476 658l2 250l83 166h141l-80 -164q0 1 17 2.5t88 1.5l-2 -256h-249z" />
<glyph unicode="&#x201d;" horiz-adv-x="809" d="M91 834v256h249v-250l-84 -166h-142l80 163q0 -1 -12 -3t-33 -2q-32 0 -58 2zM478 834v256h249v-250l-83 -166h-143l79 163q0 -1 -12 -3t-32 -2q-32 0 -58 2z" />
<glyph unicode="&#x2026;" horiz-adv-x="1401" d="M1002 -2v264h262v-264h-262zM535 -2v264h262v-264h-262zM68 -2v264h262v-264h-262z" />
<glyph unicode="&#x202f;" horiz-adv-x="326" />
<glyph unicode="&#x205f;" horiz-adv-x="407" />
<glyph unicode="&#x2122;" horiz-adv-x="3863" d="M1947 0v828q0 60 29 110.5t73 85t94 53.5t86 19q105 0 176 -53.5t148 -183.5l308 -555l316 556q62 116 134.5 176t179.5 60q64 0 119 -24.5t94.5 -66.5t60 -92.5t20.5 -97.5v-815h-310v667q0 16 -14 28.5t-26 12.5q-33 0 -46 -29l-373 -679h-294l-384 682q-3 12 -13 22 t-20.5 15t-16.5 5q-15 0 -26 -15t-11 -32v-677h-304zM32 818v258h862v-1076h-304v818h-558zM977 -2v1076h861v-259h-557v-817h-304z" />
<glyph unicode="&#xe000;" horiz-adv-x="1070" d="M0 1070h1070v-1070h-1070v1070z" />
<glyph unicode="&#xfb01;" horiz-adv-x="1863" d="M1464 0v1074h309v-1074h-309zM78 -2v789q0 63 47 130.5t121 112t148 44.5h890v-252h-799q-39 0 -71.5 -36.5t-32.5 -68.5l1 -55h884v-250h-884v-414h-304z" />
<glyph unicode="&#xfb02;" horiz-adv-x="2689" d="M1441 280v794h298v-646q0 -54 30 -94.5t70 -61t66 -20.5h734v-254h-900q-72 0 -141 51.5t-113 120.5t-44 110zM78 -2v789q0 63 47 130.5t121 112t148 44.5h890v-252h-799q-39 0 -71.5 -36.5t-32.5 -68.5l1 -55h884v-250h-884v-414h-304z" />
<glyph unicode="&#xfb03;" horiz-adv-x="3226" d="M2827 0v1074h309v-1074h-309zM1441 -2v789q0 63 47 130.5t121 112t148 44.5h890v-252h-799q-39 0 -71.5 -36.5t-32.5 -68.5l1 -55h884v-250h-884v-414h-304zM78 -2v789q0 63 47 130.5t121 112t148 44.5h890v-252h-799q-39 0 -71.5 -36.5t-32.5 -68.5l1 -55h884v-250h-884 v-414h-304z" />
<glyph unicode="&#xfb04;" horiz-adv-x="4052" d="M2804 280v794h298v-646q0 -54 30 -94.5t70 -61t66 -20.5h734v-254h-900q-72 0 -141 51.5t-113 120.5t-44 110zM1441 -2v789q0 63 47 130.5t121 112t148 44.5h890v-252h-799q-39 0 -71.5 -36.5t-32.5 -68.5l1 -55h884v-250h-884v-414h-304zM78 -2v789q0 63 47 130.5 t121 112t148 44.5h890v-252h-799q-39 0 -71.5 -36.5t-32.5 -68.5l1 -55h884v-250h-884v-414h-304z" />
</font>
</defs>
</svg>
